<mxfile host="app.diagrams.net" modified="2024-06-18T10:36:16.335Z" agent="Mozilla/5.0 (Windows NT 10.0; Win64; x64) AppleWebKit/537.36 (KHTML, like Gecko) Chrome/125.0.0.0 Safari/537.36" etag="fBK1TIqL0kTepeCT7cnU" version="24.5.4" type="device">
  <diagram name="Page-1" id="0783ab3e-0a74-02c8-0abd-f7b4e66b4bec">
    <mxGraphModel dx="1034" dy="446" grid="1" gridSize="10" guides="1" tooltips="1" connect="1" arrows="1" fold="1" page="1" pageScale="1" pageWidth="850" pageHeight="1100" background="none" math="0" shadow="0">
      <root>
        <mxCell id="0" />
        <mxCell id="1" parent="0" />
        <mxCell id="1c1d494c118603dd-1" value="UpdateSaving" style="swimlane;html=1;childLayout=stackLayout;startSize=20;rounded=0;shadow=0;comic=0;labelBackgroundColor=none;strokeWidth=1;fontFamily=Verdana;fontSize=12;align=center;" parent="1" vertex="1">
          <mxGeometry x="40" y="10" width="500" height="690" as="geometry" />
        </mxCell>
        <mxCell id="1c1d494c118603dd-2" value="User" style="swimlane;html=1;startSize=20;" parent="1c1d494c118603dd-1" vertex="1">
          <mxGeometry y="20" width="250" height="670" as="geometry" />
        </mxCell>
        <mxCell id="60571a20871a0731-4" value="" style="ellipse;whiteSpace=wrap;html=1;rounded=0;shadow=0;comic=0;labelBackgroundColor=none;strokeWidth=1;fillColor=#000000;fontFamily=Verdana;fontSize=12;align=center;" parent="1c1d494c118603dd-2" vertex="1">
          <mxGeometry x="105" y="40" width="40" height="40" as="geometry" />
        </mxCell>
        <mxCell id="60571a20871a0731-8" value="Vào màn chi tiết Saving" style="rounded=1;whiteSpace=wrap;html=1;shadow=0;comic=0;labelBackgroundColor=none;strokeWidth=1;fontFamily=Verdana;fontSize=12;align=center;arcSize=50;" parent="1c1d494c118603dd-2" vertex="1">
          <mxGeometry x="75" y="110" width="100" height="40" as="geometry" />
        </mxCell>
        <mxCell id="1c1d494c118603dd-27" style="edgeStyle=orthogonalEdgeStyle;rounded=0;html=1;labelBackgroundColor=none;startArrow=none;startFill=0;startSize=5;endArrow=classicThin;endFill=1;endSize=5;jettySize=auto;orthogonalLoop=1;strokeWidth=1;fontFamily=Verdana;fontSize=12" parent="1c1d494c118603dd-2" source="60571a20871a0731-4" target="60571a20871a0731-8" edge="1">
          <mxGeometry relative="1" as="geometry" />
        </mxCell>
        <mxCell id="vGrhfay83PMNT0lQg7Gq-17" value="Chọn Edit Saving" style="rounded=1;whiteSpace=wrap;html=1;shadow=0;comic=0;labelBackgroundColor=none;strokeWidth=1;fontFamily=Verdana;fontSize=12;align=center;arcSize=50;" parent="1c1d494c118603dd-2" vertex="1">
          <mxGeometry x="75" y="180" width="100" height="40" as="geometry" />
        </mxCell>
        <mxCell id="xMarev08O345_ZT55aOa-13" style="edgeStyle=orthogonalEdgeStyle;rounded=0;orthogonalLoop=1;jettySize=auto;html=1;" edge="1" parent="1c1d494c118603dd-2" source="xMarev08O345_ZT55aOa-4" target="xMarev08O345_ZT55aOa-12">
          <mxGeometry relative="1" as="geometry" />
        </mxCell>
        <mxCell id="xMarev08O345_ZT55aOa-4" value="Điền, chọn các thông tin muốn thay đổi" style="rounded=1;whiteSpace=wrap;html=1;shadow=0;comic=0;labelBackgroundColor=none;strokeWidth=1;fontFamily=Verdana;fontSize=12;align=center;arcSize=50;" vertex="1" parent="1c1d494c118603dd-2">
          <mxGeometry x="62.5" y="290" width="125" height="60" as="geometry" />
        </mxCell>
        <mxCell id="xMarev08O345_ZT55aOa-6" value="" style="html=1;whiteSpace=wrap;aspect=fixed;shape=isoRectangle;" vertex="1" parent="1c1d494c118603dd-2">
          <mxGeometry x="108.34" y="470" width="33.33" height="20" as="geometry" />
        </mxCell>
        <mxCell id="xMarev08O345_ZT55aOa-9" style="edgeStyle=orthogonalEdgeStyle;rounded=0;html=1;labelBackgroundColor=none;startArrow=none;startFill=0;startSize=5;endArrow=classicThin;endFill=1;endSize=5;jettySize=auto;orthogonalLoop=1;strokeWidth=1;fontFamily=Verdana;fontSize=12;exitX=0.495;exitY=1.093;exitDx=0;exitDy=0;exitPerimeter=0;" edge="1" parent="1c1d494c118603dd-2" source="xMarev08O345_ZT55aOa-6" target="xMarev08O345_ZT55aOa-11">
          <mxGeometry relative="1" as="geometry">
            <Array as="points" />
            <mxPoint x="127" y="432" as="sourcePoint" />
            <mxPoint x="127" y="460" as="targetPoint" />
          </mxGeometry>
        </mxCell>
        <mxCell id="xMarev08O345_ZT55aOa-10" value="Hủy" style="edgeLabel;html=1;align=center;verticalAlign=middle;resizable=0;points=[];" vertex="1" connectable="0" parent="xMarev08O345_ZT55aOa-9">
          <mxGeometry x="-0.1804" y="1" relative="1" as="geometry">
            <mxPoint as="offset" />
          </mxGeometry>
        </mxCell>
        <mxCell id="xMarev08O345_ZT55aOa-11" value="" style="shape=mxgraph.bpmn.shape;html=1;verticalLabelPosition=bottom;labelBackgroundColor=#ffffff;verticalAlign=top;perimeter=ellipsePerimeter;outline=end;symbol=terminate;rounded=0;shadow=0;comic=0;strokeWidth=1;fontFamily=Verdana;fontSize=12;align=center;" vertex="1" parent="1c1d494c118603dd-2">
          <mxGeometry x="105" y="520" width="40" height="40" as="geometry" />
        </mxCell>
        <mxCell id="xMarev08O345_ZT55aOa-14" style="edgeStyle=orthogonalEdgeStyle;rounded=0;orthogonalLoop=1;jettySize=auto;html=1;" edge="1" parent="1c1d494c118603dd-2" source="xMarev08O345_ZT55aOa-12" target="xMarev08O345_ZT55aOa-6">
          <mxGeometry relative="1" as="geometry" />
        </mxCell>
        <mxCell id="xMarev08O345_ZT55aOa-12" value="Lưu thay đổi" style="rounded=1;whiteSpace=wrap;html=1;shadow=0;comic=0;labelBackgroundColor=none;strokeWidth=1;fontFamily=Verdana;fontSize=12;align=center;arcSize=50;" vertex="1" parent="1c1d494c118603dd-2">
          <mxGeometry x="75" y="390" width="100" height="50" as="geometry" />
        </mxCell>
        <mxCell id="vGrhfay83PMNT0lQg7Gq-18" style="edgeStyle=orthogonalEdgeStyle;rounded=0;html=1;labelBackgroundColor=none;startArrow=none;startFill=0;startSize=5;endArrow=classicThin;endFill=1;endSize=5;jettySize=auto;orthogonalLoop=1;strokeWidth=1;fontFamily=Verdana;fontSize=12;" parent="1c1d494c118603dd-1" source="vGrhfay83PMNT0lQg7Gq-16" target="vGrhfay83PMNT0lQg7Gq-17" edge="1">
          <mxGeometry relative="1" as="geometry">
            <Array as="points">
              <mxPoint x="386" y="220" />
            </Array>
            <mxPoint x="337" y="270" as="sourcePoint" />
          </mxGeometry>
        </mxCell>
        <mxCell id="xMarev08O345_ZT55aOa-1" style="edgeStyle=orthogonalEdgeStyle;rounded=0;orthogonalLoop=1;jettySize=auto;html=1;" edge="1" parent="1c1d494c118603dd-1" source="60571a20871a0731-8" target="vGrhfay83PMNT0lQg7Gq-16">
          <mxGeometry relative="1" as="geometry" />
        </mxCell>
        <mxCell id="xMarev08O345_ZT55aOa-3" style="edgeStyle=orthogonalEdgeStyle;rounded=0;orthogonalLoop=1;jettySize=auto;html=1;entryX=0;entryY=0.5;entryDx=0;entryDy=0;" edge="1" parent="1c1d494c118603dd-1" source="vGrhfay83PMNT0lQg7Gq-17" target="xMarev08O345_ZT55aOa-2">
          <mxGeometry relative="1" as="geometry">
            <Array as="points">
              <mxPoint x="125" y="275" />
            </Array>
          </mxGeometry>
        </mxCell>
        <mxCell id="xMarev08O345_ZT55aOa-5" style="edgeStyle=orthogonalEdgeStyle;rounded=0;orthogonalLoop=1;jettySize=auto;html=1;" edge="1" parent="1c1d494c118603dd-1" source="xMarev08O345_ZT55aOa-2" target="xMarev08O345_ZT55aOa-4">
          <mxGeometry relative="1" as="geometry">
            <Array as="points">
              <mxPoint x="386" y="340" />
            </Array>
          </mxGeometry>
        </mxCell>
        <mxCell id="xMarev08O345_ZT55aOa-7" style="edgeStyle=orthogonalEdgeStyle;rounded=0;html=1;labelBackgroundColor=none;startArrow=none;startFill=0;startSize=5;endArrow=classicThin;endFill=1;endSize=5;jettySize=auto;orthogonalLoop=1;strokeWidth=1;fontFamily=Verdana;fontSize=12" edge="1" parent="1c1d494c118603dd-1" source="xMarev08O345_ZT55aOa-6" target="vGrhfay83PMNT0lQg7Gq-23">
          <mxGeometry relative="1" as="geometry">
            <Array as="points" />
            <mxPoint x="147.5" y="499.40999999999997" as="sourcePoint" />
            <mxPoint x="332.5" y="500" as="targetPoint" />
          </mxGeometry>
        </mxCell>
        <mxCell id="xMarev08O345_ZT55aOa-8" value="Đồng ý" style="edgeLabel;html=1;align=center;verticalAlign=middle;resizable=0;points=[];" vertex="1" connectable="0" parent="xMarev08O345_ZT55aOa-7">
          <mxGeometry x="-0.0739" y="-2" relative="1" as="geometry">
            <mxPoint as="offset" />
          </mxGeometry>
        </mxCell>
        <mxCell id="1c1d494c118603dd-3" value="System" style="swimlane;html=1;startSize=20;" parent="1c1d494c118603dd-1" vertex="1">
          <mxGeometry x="250" y="20" width="250" height="670" as="geometry" />
        </mxCell>
        <mxCell id="vGrhfay83PMNT0lQg7Gq-16" value="Trả về màn hình chi tiết Saving" style="rounded=1;whiteSpace=wrap;html=1;shadow=0;comic=0;labelBackgroundColor=none;strokeWidth=1;fontFamily=Verdana;fontSize=12;align=center;arcSize=50;" parent="1c1d494c118603dd-3" vertex="1">
          <mxGeometry x="77" y="105" width="117" height="50" as="geometry" />
        </mxCell>
        <mxCell id="xMarev08O345_ZT55aOa-16" style="edgeStyle=orthogonalEdgeStyle;rounded=0;orthogonalLoop=1;jettySize=auto;html=1;" edge="1" parent="1c1d494c118603dd-3" source="vGrhfay83PMNT0lQg7Gq-23" target="xMarev08O345_ZT55aOa-15">
          <mxGeometry relative="1" as="geometry" />
        </mxCell>
        <mxCell id="vGrhfay83PMNT0lQg7Gq-23" value="Tính toán thay đổi lãi suất, tiền" style="rounded=1;whiteSpace=wrap;html=1;shadow=0;comic=0;labelBackgroundColor=none;strokeWidth=1;fontFamily=Verdana;fontSize=12;align=center;arcSize=50;" parent="1c1d494c118603dd-3" vertex="1">
          <mxGeometry x="80" y="450" width="125" height="60" as="geometry" />
        </mxCell>
        <mxCell id="xMarev08O345_ZT55aOa-2" value="Trả về modal cập nhật Saving" style="rounded=1;whiteSpace=wrap;html=1;shadow=0;comic=0;labelBackgroundColor=none;strokeWidth=1;fontFamily=Verdana;fontSize=12;align=center;arcSize=50;" vertex="1" parent="1c1d494c118603dd-3">
          <mxGeometry x="77" y="230" width="117" height="50" as="geometry" />
        </mxCell>
        <mxCell id="xMarev08O345_ZT55aOa-18" style="edgeStyle=orthogonalEdgeStyle;rounded=0;orthogonalLoop=1;jettySize=auto;html=1;" edge="1" parent="1c1d494c118603dd-3" source="xMarev08O345_ZT55aOa-15" target="xMarev08O345_ZT55aOa-17">
          <mxGeometry relative="1" as="geometry" />
        </mxCell>
        <mxCell id="xMarev08O345_ZT55aOa-15" value="Trả về thông tin &lt;br&gt;cập nhật, biểu đồ&lt;br&gt;&amp;nbsp;thay đổi" style="rounded=1;whiteSpace=wrap;html=1;shadow=0;comic=0;labelBackgroundColor=none;strokeWidth=1;fontFamily=Verdana;fontSize=12;align=center;arcSize=50;" vertex="1" parent="1c1d494c118603dd-3">
          <mxGeometry x="80" y="530" width="125" height="60" as="geometry" />
        </mxCell>
        <mxCell id="xMarev08O345_ZT55aOa-17" value="" style="shape=mxgraph.bpmn.shape;html=1;verticalLabelPosition=bottom;labelBackgroundColor=#ffffff;verticalAlign=top;perimeter=ellipsePerimeter;outline=end;symbol=terminate;rounded=0;shadow=0;comic=0;strokeWidth=1;fontFamily=Verdana;fontSize=12;align=center;" vertex="1" parent="1c1d494c118603dd-3">
          <mxGeometry x="122.5" y="620" width="40" height="40" as="geometry" />
        </mxCell>
      </root>
    </mxGraphModel>
  </diagram>
</mxfile>
